<?xml version="1.0" encoding="utf-8"?>
<svg width="60.00003px" height="60.00003px" viewBox="0 0 60.00003 60.00003" version="1.1" xmlns:xlink="http://www.w3.org/1999/xlink" xmlns="http://www.w3.org/2000/svg">
  <defs>
    <linearGradient gradientUnits="userSpaceOnUse" x1="23.5" y1="-38.214" x2="23.5" y2="48.951996" id="gradient_1">
      <stop offset="0%" stop-color="#DFF9FF" />
      <stop offset="0%" stop-color="#DFF9FF" />
      <stop offset="42.6%" stop-color="#D8F8FF" />
      <stop offset="63.1%" stop-color="#C5F4FF" />
      <stop offset="83.4%" stop-color="#A5EEFF" />
      <stop offset="100%" stop-color="#81E7FF" />
    </linearGradient>
    <linearGradient gradientUnits="userSpaceOnUse" x1="25" y1="49.999996" x2="25" y2="0" id="gradient_2">
      <stop offset="0%" stop-color="#155CDE" />
      <stop offset="100%" stop-color="#2EB5F0" />
    </linearGradient>
    <path d="M0 0L60 0L60 60L0 60L0 0Z" id="path_1" />
    <clipPath id="mask_1">
      <use xlink:href="#path_1" />
    </clipPath>
  </defs>
  <g id="globe">
    <path d="M0 0L60 0L60 60L0 60L0 0Z" id="背景" fill="#FFFFFF" fill-opacity="0" fill-rule="evenodd" stroke="none" />
    <g clip-path="url(#mask_1)">
      <path d="M53.5 30C53.5 35.4 51.68 40.37 48.61 44.34C44.32 49.91 37.58 53.5 30 53.5C22.42 53.5 15.68 49.91 11.39 44.34C8.32 40.37 6.5 35.4 6.5 30C6.5 24.65 8.29 19.72 11.3 15.77C15.59 10.13 22.37 6.5 30 6.5C37.63 6.5 44.41 10.13 48.7 15.77C51.71 19.72 53.5 24.65 53.5 30L53.5 30Z" id="形状" fill="url(#gradient_1)" stroke="none" />
      <path d="M50.744 43.925C53.526 39.806 55 35.029 55 30C55 25.031 53.557 20.299 50.835 16.205L50.89 16.171L49.894 14.861C45.127 8.595 37.876 5 30 5C28.523 5 27.069 5.126 25.648 5.373C24.701 5.537 23.769 5.755 22.856 6.025C22.4 6.16 21.948 6.307 21.501 6.468C17.035 8.072 13.085 10.945 10.106 14.861C10.105 14.862 10.104 14.864 10.103 14.865L9.109 16.171L9.164 16.205C6.443 20.3 5 25.032 5 30C5 35.031 6.475 39.809 9.257 43.925L9.204 43.959L10.202 45.255C14.971 51.448 22.188 55 30 55C30.977 55 31.944 54.944 32.898 54.835C33.455 54.771 34.007 54.684 34.555 54.583C40.573 53.484 45.973 50.222 49.797 45.257C49.798 45.255 49.799 45.254 49.801 45.252L50.797 43.958L50.744 43.925L50.744 43.925ZM45.979 45.108C45.87 45.224 45.762 45.341 45.651 45.454C45.467 45.641 45.278 45.822 45.089 46.002C44.985 46.101 44.883 46.202 44.777 46.299C44.559 46.498 44.335 46.689 44.11 46.878C44.027 46.948 43.947 47.021 43.864 47.089C43.238 47.6 42.586 48.074 41.912 48.51C41.819 48.57 41.723 48.625 41.629 48.684C41.385 48.836 41.141 48.987 40.891 49.129C40.765 49.201 40.636 49.267 40.509 49.337C40.287 49.458 40.064 49.579 39.837 49.692C39.696 49.763 39.552 49.829 39.409 49.896C39.192 49.999 38.974 50.1 38.754 50.195C38.602 50.261 38.449 50.323 38.296 50.385C38.08 50.473 37.863 50.558 37.644 50.639C37.485 50.698 37.325 50.754 37.165 50.809C36.947 50.884 36.727 50.955 36.506 51.023C36.412 51.052 36.317 51.079 36.222 51.107C38.207 49.11 39.865 46.169 41.046 42.584C42.947 43.159 44.727 43.877 46.321 44.735C46.208 44.86 46.095 44.985 45.979 45.108L45.979 45.108ZM22.828 50.806C22.672 50.753 22.517 50.698 22.362 50.641C22.138 50.558 21.915 50.471 21.694 50.381C21.546 50.321 21.398 50.261 21.251 50.197C21.024 50.099 20.799 49.994 20.575 49.888C20.439 49.824 20.303 49.761 20.168 49.694C19.93 49.575 19.696 49.449 19.463 49.322C19.347 49.259 19.23 49.198 19.115 49.133C18.846 48.979 18.581 48.817 18.318 48.652C18.244 48.605 18.167 48.562 18.093 48.514C17.414 48.075 16.757 47.597 16.126 47.082C16.061 47.029 15.999 46.972 15.935 46.918C15.691 46.714 15.449 46.507 15.213 46.291C15.118 46.204 15.026 46.113 14.933 46.025C14.733 45.835 14.533 45.644 14.339 45.447C14.235 45.341 14.135 45.232 14.033 45.124C13.913 44.996 13.794 44.866 13.676 44.735C15.269 43.877 17.049 43.159 18.95 42.585C20.131 46.17 21.79 49.111 23.775 51.108C23.682 51.081 23.59 51.054 23.497 51.026C23.275 50.956 23.051 50.883 22.828 50.806L22.828 50.806ZM13.912 15.001C14.032 14.871 14.152 14.74 14.275 14.613C14.444 14.439 14.618 14.272 14.791 14.105C14.91 13.99 15.028 13.873 15.149 13.761C15.347 13.579 15.55 13.405 15.753 13.231C15.857 13.142 15.957 13.05 16.062 12.964C16.366 12.714 16.676 12.472 16.992 12.239C17.017 12.221 17.041 12.204 17.066 12.186C17.374 11.961 17.687 11.745 18.005 11.537C18.117 11.464 18.233 11.396 18.347 11.325C18.573 11.183 18.8 11.042 19.031 10.908C19.168 10.829 19.308 10.756 19.446 10.681C19.659 10.565 19.872 10.448 20.088 10.339C20.238 10.263 20.391 10.192 20.543 10.12C20.753 10.02 20.964 9.921 21.177 9.828C21.335 9.759 21.495 9.694 21.655 9.628C21.867 9.541 22.08 9.457 22.295 9.377C22.385 9.344 22.476 9.313 22.566 9.28C20.951 11.369 19.612 14.133 18.651 17.375C16.832 16.826 15.123 16.153 13.591 15.351C13.698 15.235 13.805 15.118 13.912 15.001L13.912 15.001ZM38.342 9.63C38.503 9.696 38.663 9.761 38.822 9.83C39.034 9.923 39.244 10.021 39.453 10.12C39.606 10.193 39.76 10.264 39.911 10.34C40.126 10.448 40.337 10.563 40.547 10.679C40.688 10.756 40.829 10.83 40.968 10.91C41.196 11.042 41.42 11.181 41.644 11.321C41.76 11.394 41.879 11.463 41.994 11.538C42.309 11.743 42.618 11.958 42.923 12.18C42.958 12.206 42.993 12.231 43.028 12.256C43.336 12.483 43.638 12.718 43.934 12.962C44.046 13.054 44.153 13.152 44.264 13.247C44.461 13.416 44.658 13.584 44.849 13.76C44.974 13.875 45.094 13.995 45.216 14.112C45.386 14.276 45.557 14.44 45.723 14.611C45.849 14.741 45.972 14.875 46.095 15.008C46.2 15.122 46.304 15.237 46.408 15.353C44.876 16.155 43.167 16.827 41.348 17.377C40.387 14.135 39.048 11.371 37.433 9.282C37.523 9.314 37.614 9.345 37.704 9.378C37.917 9.459 38.13 9.544 38.342 9.63L38.342 9.63ZM42.987 28.5C42.928 25.594 42.612 22.835 42.08 20.296C44.309 19.63 46.381 18.776 48.253 17.744C50.421 20.96 51.682 24.629 51.94 28.5L42.987 28.5L42.987 28.5ZM31.5 8.253C34.381 9.231 36.898 12.972 38.431 18.125C36.218 18.594 33.885 18.874 31.5 18.959L31.5 8.253L31.5 8.253ZM28.5 18.96C26.115 18.875 23.782 18.594 21.569 18.126C23.102 12.973 25.619 9.233 28.5 8.254L28.5 18.96L28.5 18.96ZM28.5 21.956L28.5 28.5L20.012 28.5C20.071 25.876 20.362 23.359 20.839 21.04C23.276 21.561 25.845 21.87 28.5 21.956L28.5 21.956ZM28.5 31.5L28.5 38.046C25.925 38.132 23.428 38.434 21.056 38.944C20.518 36.649 20.166 34.136 20.046 31.501L28.5 31.5L28.5 31.5L28.5 31.5ZM28.5 41.042L28.5 50.747C25.803 49.831 23.426 46.494 21.875 41.845C23.997 41.398 26.224 41.126 28.5 41.042L28.5 41.042ZM31.5 50.747L31.5 41.042C33.776 41.126 36.003 41.398 38.125 41.845C36.575 46.494 34.197 49.831 31.5 50.747L31.5 50.747ZM31.5 38.046L31.5 31.5L39.953 31.5C39.834 34.136 39.482 36.649 38.944 38.943C36.572 38.433 34.075 38.131 31.5 38.046L31.5 38.046ZM31.5 28.5L31.5 21.956C34.155 21.871 36.724 21.562 39.16 21.041C39.637 23.36 39.928 25.877 39.987 28.501L31.5 28.5L31.5 28.5L31.5 28.5ZM17.92 20.295C17.388 22.835 17.072 25.594 17.013 28.5L8.06 28.5C8.318 24.629 9.579 20.96 11.747 17.744C13.619 18.775 15.691 19.629 17.92 20.295L17.92 20.295ZM17.045 31.5C17.165 34.417 17.544 37.175 18.141 39.695C15.857 40.384 13.734 41.275 11.821 42.358C9.607 39.122 8.322 35.418 8.061 31.5L17.045 31.5L17.045 31.5ZM41.859 39.695C42.456 37.175 42.836 34.417 42.955 31.5L51.939 31.5C51.678 35.417 50.394 39.12 48.179 42.358C46.266 41.275 44.143 40.384 41.859 39.695L41.859 39.695Z" id="形状" fill="url(#gradient_2)" fill-rule="evenodd" stroke="none" />
    </g>
  </g>
</svg>