<?xml version="1.0" encoding="utf-8"?>
<svg width="24px" height="24px" viewBox="0 0 24 24" version="1.1" xmlns:xlink="http://www.w3.org/1999/xlink" xmlns="http://www.w3.org/2000/svg">
  <defs>
    <linearGradient gradientUnits="userSpaceOnUse" x1="22" y1="22" x2="0" y2="0" id="gradient_1">
      <stop offset="0%" stop-color="#FA9354" />
      <stop offset="100%" stop-color="#F66224" />
    </linearGradient>
  </defs>
  <g id="交大生活">
    <path d="M0 0L24 0L24 24L0 24L0 0Z" id="矩形" fill="none" fill-rule="evenodd" stroke="none" />
    <path d="M12 1C5.92488 1 1 5.92488 1 12C1 18.0751 5.92488 23 12 23C18.0751 23 23 18.0751 23 12C23 5.92488 18.0751 1 12 1L12 1ZM11.1099 17.1018C11.1099 17.3426 11.0254 17.5454 10.8562 17.7112C10.6848 17.8781 10.4798 17.9604 10.2395 17.9604L6.89387 17.9604C6.65303 17.9604 6.45138 17.877 6.28557 17.7112C6.11975 17.5454 6.03631 17.3421 6.03631 17.1018L6.03631 13.7349C6.03631 13.494 6.11975 13.2924 6.28557 13.126C6.45138 12.9591 6.65303 12.8756 6.89387 12.8756L10.2395 12.8756C10.4798 12.8756 10.6848 12.9602 10.8562 13.1255C11.0259 13.2924 11.1099 13.494 11.1099 13.7349L11.1099 17.1018L11.1099 17.1018ZM11.1099 10.9426C11.1099 11.1829 11.0254 11.389 10.8562 11.5593C10.6848 11.7307 10.4798 11.8153 10.2395 11.8153L6.89387 11.8153C6.65303 11.8153 6.45138 11.7307 6.28557 11.5593C6.11975 11.3902 6.03631 11.1829 6.03631 10.9426L6.03631 7.58973C6.03631 7.34889 6.11975 7.14552 6.28557 6.97971C6.45138 6.81396 6.65303 6.72994 6.89387 6.72994L10.2395 6.72994C10.4798 6.72994 10.6848 6.81396 10.8562 6.9792C11.0259 7.1461 11.1099 7.34832 11.1099 7.58973L11.1099 10.9426L11.1099 10.9426L11.1099 10.9426ZM17.2405 17.1023C17.2405 17.3432 17.1576 17.5459 16.993 17.7118C16.8272 17.8787 16.6238 17.961 16.3846 17.961L13.0384 17.961C12.7981 17.961 12.5943 17.8776 12.4228 17.7118C12.2526 17.5459 12.1663 17.3426 12.1663 17.1023L12.1663 13.7354C12.1663 13.4946 12.2526 13.2929 12.4228 13.126C12.5931 12.9591 12.7993 12.8756 13.0384 12.8756L16.3846 12.8756C16.6238 12.8756 16.8277 12.9602 16.993 13.126C17.1587 13.2918 17.2405 13.4946 17.2405 13.7354L17.2405 17.1023L17.2405 17.1023L17.2405 17.1023ZM17.716 9.87449L15.3456 12.2449C15.1759 12.4147 14.9709 12.5009 14.7306 12.5015C14.488 12.5015 14.283 12.4163 14.1133 12.2466L11.7479 9.8812C11.5776 9.7109 11.4947 9.50817 11.4987 9.27006C11.5015 9.03317 11.5888 8.82758 11.7586 8.65789L14.129 6.28739C14.2992 6.11658 14.502 6.03199 14.7367 6.03199C14.9714 6.03199 15.1737 6.11487 15.3439 6.28574L17.7094 8.65112C17.8791 8.82087 17.9648 9.02529 17.9682 9.26333C17.9704 9.50089 17.8869 9.70362 17.716 9.87449L17.716 9.87449L17.716 9.87449Z" id="形状" fill="url(#gradient_1)" fill-rule="evenodd" stroke="none" />
  </g>
</svg>