<?xml version="1.0" encoding="utf-8"?>
<svg width="25.945557px" height="27.884247px" viewBox="0 0 25.945557 27.884247" version="1.1" xmlns:xlink="http://www.w3.org/1999/xlink" xmlns="http://www.w3.org/2000/svg">
  <defs>
    <linearGradient gradientUnits="userSpaceOnUse" x1="12.972772" y1="0" x2="12.972772" y2="27.884247" id="gradient_1">
      <stop offset="0%" stop-color="#E63340" />
      <stop offset="100%" stop-color="#C8171E" />
    </linearGradient>
  </defs>
  <g id="交我算">
    <path d="M22.3984 0.311453C22.8867 0.967272 22.267 1.3656 21.8405 1.63255C20.6889 2.35316 19.4875 2.99126 18.3033 3.65736C18.125 3.75759 17.9329 3.83201 17.4686 4.04791C17.9597 4.46331 18.2711 4.87806 18.68 5.04662C20.4731 5.78566 22.2799 5.70483 24.0593 4.94818C24.3094 4.8418 24.5538 4.71596 24.7872 4.57545C25.2296 4.3091 25.7298 4.20397 25.9284 4.75325C26.0192 5.00427 25.7311 5.63411 25.4756 5.73902C24.3097 6.21753 23.1193 6.72604 21.8907 6.93086C20.2405 7.20607 18.6669 6.75159 17.2099 5.85442C16.8773 5.6496 16.3575 5.76142 15.9239 5.7275C15.9088 5.81974 15.8938 5.91204 15.8787 6.00434C16.2594 6.20171 16.6746 6.35239 17.0105 6.61037C17.3155 6.84459 17.7216 7.17307 17.7594 7.49911C17.9108 8.80538 18.6753 8.89048 19.5152 8.86205L19.7458 8.85232C19.8616 8.84688 19.9779 8.8412 20.0934 8.83809C20.6914 8.82194 21.2903 8.83515 21.9311 8.83515C21.9892 8.4902 21.9719 8.1552 22.1084 7.9089C22.2371 7.67653 22.529 7.39545 22.7468 7.39746C22.9632 7.39952 23.2593 7.68745 23.3693 7.92342C23.4902 8.18287 23.4591 8.52608 23.4593 8.83282L23.4626 17.6248L23.4628 26.4167C23.4628 26.5092 23.4638 26.6019 23.4601 26.6943C23.4384 27.2292 23.4414 27.8592 22.7283 27.8439C22.6745 27.8428 22.6249 27.838 22.5791 27.83L17.5076 27.8289C17.4634 27.8337 17.4159 27.8357 17.3647 27.8347C16.6272 27.8197 16.7215 27.1431 16.7209 26.6334L16.7171 18.3968L16.7174 10.1601C16.7171 8.22717 16.9685 7.85493 14.5946 7.12067C12.8773 6.58949 11.4472 7.12709 9.9476 7.63407C9.25898 7.86689 9.24693 8.55967 9.24747 9.19695C9.25082 12.9605 9.2496 16.7241 9.24992 20.4877C9.25008 22.5545 9.25962 24.6215 9.24043 26.6882C9.2375 27.0114 9.18364 27.3887 9.0132 27.6432C8.84787 27.8901 8.56071 27.938 8.32123 27.8292L3.18392 27.8286C3.14062 27.8265 3.09341 27.8303 3.04263 27.8313C2.16961 27.8491 2.30073 27.0155 2.29971 26.4233C2.29023 20.5311 2.29316 14.639 2.29716 8.74682C2.29737 8.47139 2.26775 8.15661 2.38432 7.93141C2.50713 7.69398 2.81151 7.36941 2.99537 7.39469C3.24978 7.42975 3.66386 7.75643 3.6637 7.95788C3.66285 8.82395 4.14076 8.8738 4.78735 8.84483C5.57193 8.8096 6.36109 8.86815 7.14445 8.82075C7.38937 8.80591 7.79781 8.6162 7.83239 8.44405C8.09105 7.15508 8.86397 6.40375 10.1969 6.04288C9.52446 5.54833 9.0855 5.61764 8.49922 5.95819C5.77503 7.54025 3.05073 7.27515 0.411357 5.70488C0.167767 5.56002 -0.070069 4.99933 0.0191729 4.75956C0.227173 4.20098 0.709452 4.31687 1.15747 4.56996C3.08765 5.66058 5.1059 5.88399 7.17802 5.07842C7.43126 4.97995 7.65492 4.80231 7.87371 4.61157L8.20131 4.32391C8.25633 4.27709 8.31182 4.23151 8.36816 4.18821C8.32607 4.08808 8.28398 3.98807 8.24189 3.88799C7.9691 3.78499 7.67548 3.71889 7.42715 3.57272C6.23062 2.86858 5.03632 2.15927 3.86302 1.41599C3.44345 1.15024 3.15366 0.676624 3.61143 0.283024C3.81331 0.109461 4.38648 0.199096 4.68671 0.365375C5.63581 0.8909 6.48566 1.62429 7.46524 2.06697C9.35914 2.92283 11.1497 2.35414 12.3892 0.66684C12.7707 0.147457 13.1522 0.112668 13.5505 0.651674C14.9206 2.50564 17.0208 2.95729 19.1427 1.80622C19.8053 1.44681 20.4068 0.968414 21.0286 0.533067C21.0764 0.499583 21.1242 0.462417 21.1722 0.423732L21.3167 0.305285C21.6552 0.0283743 22.0049 -0.216936 22.3984 0.311453L22.3984 0.311453ZM14.429 8.3312C15.1726 8.3312 15.7754 8.94625 15.7754 9.70492L15.7754 26.3973C15.7754 27.156 15.1726 27.7709 14.429 27.7709L11.5664 27.7709C10.8228 27.7709 10.22 27.156 10.22 26.3973L10.22 9.70492C10.22 8.94625 10.8228 8.3312 11.5664 8.3312L14.429 8.3312L14.429 8.3312ZM5.87043 27.8842L5.87043 8.8352M13.9388 27.8286L12.9388 8.33123M20.125 27.8842L20.125 8.8352M3.31555 14.9669L22.3556 14.9669" id="形状结合" fill="url(#gradient_1)" fill-rule="evenodd" stroke="none" />
    <path d="M8.11214 12.1715C8.11214 13.0218 7.09803 13.711 5.84705 13.711C4.59606 13.711 3.58196 13.0218 3.58196 12.1715C3.58196 11.3212 4.59606 10.632 5.84705 10.632C7.09803 10.632 8.11214 11.3212 8.11214 12.1715" id="Fill-14" fill="#F6F6F6" stroke="none" />
    <path d="M8.11214 18.7653C8.11214 19.6156 7.09803 20.3049 5.84705 20.3049C4.59606 20.3049 3.58196 19.6156 3.58196 18.7653C3.58196 17.9151 4.59606 17.2258 5.84705 17.2258C7.09803 17.2258 8.11214 17.9151 8.11214 18.7653" id="Fill-15" fill="#F6F6F6" stroke="none" />
    <path d="M15.1797 21.4678C15.1797 22.318 14.1656 23.0073 12.9146 23.0073C11.6636 23.0073 10.6495 22.318 10.6495 21.4678C10.6495 20.6175 11.6636 19.9283 12.9146 19.9283C14.1656 19.9283 15.1797 20.6175 15.1797 21.4678" id="Fill-16" fill="#F6F6F6" stroke="none" />
    <path d="M15.1681 11.2786C15.1681 12.1289 14.154 12.8181 12.9029 12.8181C11.652 12.8181 10.6379 12.1289 10.6379 11.2786C10.6379 10.4283 11.652 9.7391 12.9029 9.7391C14.154 9.7391 15.1681 10.4283 15.1681 11.2786" id="Fill-17" fill="#F6F6F6" stroke="none" />
    <path d="M8.11214 22.2892C8.11214 23.1394 7.09803 23.8287 5.84705 23.8287C4.59606 23.8287 3.58196 23.1394 3.58196 22.2892C3.58196 21.4389 4.59606 20.7497 5.84705 20.7497C7.09803 20.7497 8.11214 21.4389 8.11214 22.2892" id="Fill-18" fill="#F6F6F6" stroke="none" />
    <path d="M15.3314 25.0175C15.3314 25.8677 14.3173 26.557 13.0663 26.557C11.8153 26.557 10.8012 25.8677 10.8012 25.0175C10.8012 24.1672 11.8153 23.478 13.0663 23.478C14.3173 23.478 15.3314 24.1672 15.3314 25.0175" id="Fill-19" fill="#F6F6F6" stroke="none" />
    <path d="M22.3668 12.1715C22.3668 13.0218 21.3526 13.711 20.1016 13.711C18.8507 13.711 17.8366 13.0218 17.8366 12.1715C17.8366 11.3212 18.8507 10.632 20.1016 10.632C21.3526 10.632 22.3668 11.3212 22.3668 12.1715" id="Fill-22" fill="#F6F6F6" stroke="none" />
    <path d="M22.2954 18.6097C22.2954 19.4599 21.2813 20.1492 20.0303 20.1492C18.7793 20.1492 17.7652 19.4599 17.7652 18.6097C17.7652 17.7593 18.7793 17.0701 20.0303 17.0701C21.2813 17.0701 22.2954 17.7593 22.2954 18.6097" id="Fill-23" fill="#F6F6F6" stroke="none" />
    <path d="M22.3668 22.2892C22.3668 23.1394 21.3526 23.8287 20.1016 23.8287C18.8507 23.8287 17.8366 23.1394 17.8366 22.2892C17.8366 21.4389 18.8507 20.7497 20.1016 20.7497C21.3526 20.7497 22.3668 21.4389 22.3668 22.2892" id="Fill-24" fill="#F6F6F6" stroke="none" />
  </g>
</svg>