<?xml version="1.0" encoding="utf-8"?>
<svg width="112px" height="112px" viewBox="0 0 112 112" version="1.1" xmlns:xlink="http://www.w3.org/1999/xlink" xmlns="http://www.w3.org/2000/svg">
  <defs>
    <linearGradient gradientUnits="userSpaceOnUse" x1="0.0234375" y1="-0.03515625" x2="91.57031" y2="91.640625" id="gradient_1">
      <stop offset="0%" stop-color="#DC1D39" />
      <stop offset="100%" stop-color="#AB2E40" />
    </linearGradient>
  </defs>
  <g id="交我算logo">
    <path d="M16.2695 8.96375L95.8124 8.96375C100.338 8.96375 104.041 12.6666 104.041 17.1923L104.041 96.7352C104.041 101.261 100.338 104.964 95.8124 104.964L16.2695 104.964C11.7438 104.964 8.04095 101.261 8.04095 96.7352L8.04095 17.1923C8.04095 12.6666 11.7438 8.96375 16.2695 8.96375L16.2695 8.96375Z" id="矩形" fill="url(#gradient_1)" stroke="none" />
    <path d="M0 0L112 0L112 112L0 112L0 0Z" id="矩形-2" fill="none" fill-rule="evenodd" stroke="none" />
    <path d="M47.6752 63.0666L29.5724 63.0666C28.8867 63.0666 28.2695 62.4495 28.2695 61.6952L28.2695 61.6952C28.2695 60.9409 28.8181 60.3237 29.5724 60.3237L47.6752 60.3237C48.361 60.3237 48.9781 60.9409 48.9781 61.6952L48.9781 61.6952C48.9095 62.518 48.361 63.0666 47.6752 63.0666L47.6752 63.0666ZM47.6752 87.6837L29.5724 87.6837C28.8867 87.6837 28.2695 87.0666 28.2695 86.3123L28.2695 86.3123C28.2695 85.558 28.8181 84.9409 29.5724 84.9409L47.6752 84.9409C48.361 84.9409 48.9781 85.558 48.9781 86.3123L48.9781 86.3123C48.9095 86.998 48.361 87.6837 47.6752 87.6837L47.6752 87.6837ZM47.6752 71.2266L29.5724 71.2266C28.8867 71.2266 28.2695 70.6095 28.2695 69.8552L28.2695 69.8552C28.2695 69.1009 28.8181 68.4837 29.5724 68.4837L47.6752 68.4837C48.361 68.4837 48.9781 69.1009 48.9781 69.8552L48.9781 69.8552C48.9095 70.678 48.361 71.2266 47.6752 71.2266L47.6752 71.2266ZM47.6752 79.3866L29.5724 79.3866C28.8867 79.3866 28.2695 78.7695 28.2695 78.0152L28.2695 78.0152C28.2695 77.2609 28.8181 76.6437 29.5724 76.6437L47.6752 76.6437C48.361 76.6437 48.9781 77.2609 48.9781 78.0152L48.9781 78.0152C48.9095 78.838 48.361 79.3866 47.6752 79.3866L47.6752 79.3866ZM47.6752 46.8152L29.5724 46.8152C28.8867 46.8152 28.2695 46.198 28.2695 45.4437L28.2695 45.3066C28.2695 44.5523 28.8181 43.9352 29.5724 43.9352L47.6752 43.9352C48.361 43.9352 48.9781 44.5523 48.9781 45.3066L48.9781 45.3752C48.9095 46.1295 48.4295 46.8152 47.6752 46.8152L47.6752 46.8152ZM47.6752 54.9066L29.5724 54.9066C28.8867 54.9066 28.2695 54.2895 28.2695 53.5352L28.2695 53.5352C28.2695 52.7809 28.8181 52.1637 29.5724 52.1637L47.6752 52.1637C48.361 52.1637 48.9781 52.7809 48.9781 53.5352L48.9781 53.5352C48.9095 54.358 48.361 54.9066 47.6752 54.9066L47.6752 54.9066Z" id="Group" fill="#FFFFFF" stroke="#FFFFFF" stroke-width="0.5" />
    <path d="M70.7152 63.0666L64.3381 63.0666C63.6524 63.0666 63.0352 62.4495 63.0352 61.6952L63.0352 61.6952C63.0352 60.9409 63.5838 60.3237 64.3381 60.3237L70.7152 60.3237C71.401 60.3237 72.0181 60.9409 72.0181 61.6952L72.0181 61.6952C72.0181 62.518 71.401 63.0666 70.7152 63.0666L70.7152 63.0666ZM70.7152 87.6837L64.3381 87.6837C63.6524 87.6837 63.0352 87.0666 63.0352 86.3123L63.0352 86.3123C63.0352 85.558 63.5838 84.9409 64.3381 84.9409L70.7152 84.9409C71.401 84.9409 72.0181 85.558 72.0181 86.3123L72.0181 86.3123C72.0181 86.998 71.401 87.6837 70.7152 87.6837L70.7152 87.6837ZM70.7152 71.2266L64.3381 71.2266C63.6524 71.2266 63.0352 70.6095 63.0352 69.8552L63.0352 69.8552C63.0352 69.1009 63.5838 68.4837 64.3381 68.4837L70.7152 68.4837C71.401 68.4837 72.0181 69.1009 72.0181 69.8552L72.0181 69.8552C72.0181 70.678 71.401 71.2266 70.7152 71.2266L70.7152 71.2266ZM70.7152 79.3866L64.3381 79.3866C63.6524 79.3866 63.0352 78.7695 63.0352 78.0152L63.0352 78.0152C63.0352 77.2609 63.5838 76.6437 64.3381 76.6437L70.7152 76.6437C71.401 76.6437 72.0181 77.2609 72.0181 78.0152L72.0181 78.0152C72.0181 78.838 71.401 79.3866 70.7152 79.3866L70.7152 79.3866ZM70.7152 46.8152L64.3381 46.8152C63.6524 46.8152 63.0352 46.198 63.0352 45.4437L63.0352 45.4437C63.0352 44.6895 63.5838 44.0723 64.3381 44.0723L70.7152 44.0723C71.401 44.0723 72.0181 44.6895 72.0181 45.4437L72.0181 45.4437C72.0181 46.1295 71.401 46.8152 70.7152 46.8152L70.7152 46.8152ZM70.7152 54.9066L64.3381 54.9066C63.6524 54.9066 63.0352 54.2895 63.0352 53.5352L63.0352 53.5352C63.0352 52.7809 63.5838 52.1637 64.3381 52.1637L70.7152 52.1637C71.401 52.1637 72.0181 52.7809 72.0181 53.5352L72.0181 53.5352C72.0181 54.358 71.401 54.9066 70.7152 54.9066L70.7152 54.9066ZM82.0981 63.2037L75.9952 63.2037C75.1724 63.2037 74.6238 62.518 74.6238 61.7637L74.6238 61.7637C74.6238 60.8723 75.241 60.3237 75.9952 60.3237L82.0981 60.3237C82.921 60.3237 83.4695 61.0095 83.4695 61.7637L83.4695 61.7637C83.5381 62.5866 82.921 63.2037 82.0981 63.2037L82.0981 63.2037ZM82.0981 87.7523L75.9952 87.7523C75.1724 87.7523 74.6238 87.0666 74.6238 86.3123L74.6238 86.3123C74.6238 85.4209 75.241 84.8723 75.9952 84.8723L82.0981 84.8723C82.921 84.8723 83.4695 85.558 83.4695 86.3123L83.4695 86.3123C83.5381 87.0666 82.921 87.7523 82.0981 87.7523L82.0981 87.7523ZM82.3038 71.2952L75.9267 71.2952C75.241 71.2952 74.6238 70.678 74.6238 69.9238L74.6238 69.9238C74.6238 69.1695 75.1724 68.5523 75.9267 68.5523L82.3038 68.5523C82.9895 68.5523 83.6067 69.1695 83.6067 69.9238L83.6067 69.9238C83.5381 70.7466 82.9895 71.2952 82.3038 71.2952L82.3038 71.2952ZM82.3038 79.3866L75.9267 79.3866C75.241 79.3866 74.6238 78.7695 74.6238 78.0152L74.6238 78.0152C74.6238 77.2609 75.1724 76.6437 75.9267 76.6437L82.3038 76.6437C82.9895 76.6437 83.6067 77.2609 83.6067 78.0152L83.6067 78.0152C83.5381 78.7695 82.9895 79.3866 82.3038 79.3866L82.3038 79.3866ZM82.3038 46.8152L75.9267 46.8152C75.241 46.8152 74.6238 46.198 74.6238 45.4437L74.6238 45.4437C74.6238 44.6895 75.1724 44.0723 75.9267 44.0723L82.3038 44.0723C82.9895 44.0723 83.6067 44.6895 83.6067 45.4437L83.6067 45.4437C83.5381 46.1295 82.9895 46.8152 82.3038 46.8152L82.3038 46.8152ZM82.3038 54.9066L75.9267 54.9066C75.241 54.9066 74.6238 54.2895 74.6238 53.5352L74.6238 53.5352C74.6238 52.7809 75.1724 52.1637 75.9267 52.1637L82.3038 52.1637C82.9895 52.1637 83.6067 52.7809 83.6067 53.5352L83.6067 53.5352C83.5381 54.2895 82.9895 54.9066 82.3038 54.9066L82.3038 54.9066Z" id="Group" fill="#FFFFFF" stroke="#FFFFFF" stroke-width="0.5" />
    <path d="M31.9038 22.2666C32.4524 21.718 33.2752 21.6495 33.8238 22.198C33.8924 22.2666 35.4695 23.7752 37.7324 25.2152C40.6124 27.1352 43.2867 28.0952 45.3438 28.0952C49.1838 28.0952 53.5724 26.4495 54.3267 23.5009C54.4638 23.0209 54.8067 22.6095 55.2867 22.4723L55.3552 22.4723L55.3552 22.4723C55.3552 22.4723 55.3552 22.4723 55.4238 22.4723L55.4924 22.4723L55.5609 22.4723L55.6295 22.4723L55.6981 22.4723L55.6981 22.4723L55.6981 22.4723L55.6981 22.4723L55.7667 22.4723C55.7667 22.4723 55.7667 22.4723 55.8352 22.4723C55.9038 22.4723 55.9038 22.4723 55.9724 22.4723L55.9724 22.4723L55.9724 22.4723L55.9724 22.4723L56.0409 22.4723C56.5209 22.6095 56.8638 23.0209 56.9324 23.5009C57.6867 26.518 62.1438 28.0952 65.9152 28.0952C68.0409 28.0952 70.6467 27.0666 73.5267 25.2152C75.7895 23.7066 77.4352 22.198 77.4352 22.198C77.9838 21.6495 78.8752 21.718 79.3552 22.2666C79.9038 22.8152 79.8352 23.7066 79.2867 24.2552C79.0124 24.5295 73.1152 30.0152 67.2181 30.838L67.2181 30.838L67.2181 31.8666C67.2181 32.8266 67.7667 33.718 68.5895 34.1295C70.3724 35.0895 73.1152 36.1866 76.5438 36.1866C79.4238 36.1866 82.8524 35.4323 86.5552 33.1695C87.1724 32.758 88.0638 32.9638 88.4067 33.6495C88.8181 34.3352 88.6124 35.158 87.9267 35.5695C83.7438 38.1752 79.8352 38.998 76.5438 38.998C72.4981 38.998 69.2752 37.6952 67.2181 36.598C66.5324 36.1866 65.9838 35.7066 65.5038 35.0895C65.1609 35.2952 64.8181 35.5009 64.4067 35.638L64.4067 35.638L60.7724 36.7352L63.9952 37.6952C66.6009 38.4495 68.4524 40.918 68.4524 43.6609L68.4524 43.6609L68.4524 44.9886L65.7095 44.9886L65.7095 43.6609C65.7095 42.1523 64.6809 40.7809 63.2409 40.3695L63.2409 40.3695L55.7667 38.1752L48.2924 40.3695C46.8524 40.7809 45.8238 42.1523 45.8238 43.6609L45.8238 43.6609L45.8238 44.6458L43.0809 44.6458L43.0809 43.6609C43.0809 40.918 44.9324 38.4495 47.5381 37.6952L47.5381 37.6952L50.7609 36.7352L46.8524 35.638C46.4409 35.5009 46.0981 35.3638 45.7552 35.0895C45.2752 35.7066 44.7267 36.1866 44.0409 36.598C41.9838 37.7638 38.7609 38.998 34.7152 38.998C31.4238 38.998 27.5152 38.1066 23.3324 35.5695C22.7152 35.158 22.4409 34.3352 22.8524 33.6495C23.2638 32.9638 24.0867 32.758 24.7038 33.1695C32.8638 38.1752 39.4467 35.9123 42.6695 34.1295C43.4924 33.6495 44.0409 32.758 44.0409 31.8666L44.0409 31.8666L44.0409 30.838C38.1438 30.0152 32.2467 24.5295 31.9724 24.2552C31.4238 23.7066 31.4238 22.8152 31.9038 22.2666L31.9038 22.2666ZM55.7667 26.7238C54.1209 28.7809 51.1038 30.4952 46.7838 30.838L46.7838 30.838L46.7838 31.798C46.7838 32.278 47.1267 32.758 47.6067 32.8952L47.6067 32.8952L55.7667 35.2952L63.9267 32.8952C64.4067 32.758 64.7495 32.278 64.7495 31.798L64.7495 31.798L64.7495 31.798L64.7495 30.838C60.4295 30.5638 57.4124 28.7809 55.7667 26.7238L55.7667 26.7238Z" id="形状结合" fill="#FFFFFF" fill-rule="evenodd" stroke="#FFFFFF" stroke-width="0.5" />
  </g>
</svg>