<?xml version="1.0" encoding="utf-8"?>
<svg width="32px" height="32px" viewBox="0 0 32 32" version="1.1" xmlns:xlink="http://www.w3.org/1999/xlink" xmlns="http://www.w3.org/2000/svg">
  <defs>
    <linearGradient gradientUnits="userSpaceOnUse" x1="18.875738" y1="26" x2="3.1242604" y2="0" id="gradient_1">
      <stop offset="0%" stop-color="#0072FF" />
      <stop offset="100%" stop-color="#0865D9" />
    </linearGradient>
  </defs>
  <g id="图书馆">
    <path d="M0 0L32 0L32 32L0 32L0 0Z" id="矩形" fill="#000000" fill-opacity="0" fill-rule="evenodd" stroke="none" />
    <path d="M24.0939 7.64286C23.8974 7.21731 23.7917 6.7437 23.7917 6.25C23.7917 5.7563 23.8974 5.28269 24.0939 4.85714L8.20833 4.85714C7.42917 4.85714 6.83333 5.46071 6.83333 6.25C6.83333 7.03929 7.42917 7.64286 8.20833 7.64286L24.0939 7.64286ZM27 8.57143C27 8.52685 26.9969 8.48298 26.9908 8.44003C27.0425 8.04868 26.8215 7.65411 26.45 7.50357C25.9458 7.31786 25.625 6.80714 25.625 6.25C25.625 5.69286 25.9458 5.18214 26.45 4.95C26.7851 4.81422 26.9732 4.47988 26.9785 4.12845C26.9926 4.06402 27 3.99713 27 3.92857C27 3.41786 26.5875 3 26.0833 3L8.20833 3C6.42083 3 5 4.43929 5 6.25L5 26.2143C5 27.7464 6.2375 29 7.75 29L24.25 29C25.7625 29 27 27.7464 27 26.2143L27 8.57143ZM8.20833 9.5L25.1667 9.5L25.1667 26.2143C25.1667 26.725 24.7542 27.1429 24.25 27.1429L7.75 27.1429C7.24583 27.1429 6.83333 26.725 6.83333 26.2143L6.83333 9.1931C7.24889 9.3902 7.71462 9.5 8.20833 9.5ZM18.6583 23.5214C18.475 23.5214 18.2917 23.475 18.1542 23.4286L16 22.4536L13.8458 23.4286C13.4333 23.6143 12.9292 23.5679 12.6083 23.2893C12.2417 23.0107 12.0583 22.5929 12.1042 22.1286L12.3333 19.7607L10.775 17.9964C10.4542 17.6714 10.3625 17.1607 10.5 16.7429C10.6375 16.325 11.0042 16 11.4625 15.8607L13.7542 15.35L14.9458 13.3071C15.175 12.9357 15.5875 12.6571 16.0458 12.6571C16.5042 12.6571 16.9167 12.8893 17.1458 13.3071L18.3375 15.35L20.6292 15.8607C21.0875 15.9536 21.4083 16.2786 21.5458 16.7429C21.6833 17.1607 21.5917 17.6714 21.2708 17.9964L19.6667 19.7607L19.8958 22.1286C19.9417 22.5929 19.7583 23.0107 19.3917 23.2893C19.1625 23.4286 18.9333 23.5214 18.6583 23.5214ZM12.7917 17.4857L13.8917 18.6929C14.1208 18.9714 14.2583 19.3429 14.2125 19.6679L14.0292 21.2929L15.4958 20.6429C15.8167 20.5036 16.1833 20.5036 16.5042 20.6429L17.9708 21.2929L17.8333 19.7143C17.7875 19.3429 17.925 19.0179 18.1542 18.7393L19.2542 17.5321L17.6958 17.2071C17.3292 17.1143 17.0542 16.9286 16.8708 16.6036L16 15.1179L15.175 16.5107C14.9917 16.8357 14.7167 17.0214 14.35 17.1143L12.7917 17.4857Z" id="形状" fill="url(#gradient_1)" fill-rule="evenodd" stroke="none" />
  </g>
</svg>