<?xml version="1.0" encoding="utf-8"?>
<svg width="28.000061px" height="28px" viewBox="0 0 28.000061 28" version="1.1" xmlns:xlink="http://www.w3.org/1999/xlink" xmlns="http://www.w3.org/2000/svg">
  <defs>
    <linearGradient gradientUnits="userSpaceOnUse" x1="21.104464" y1="20.896313" x2="0" y2="0.10368888" id="gradient_1">
      <stop offset="0%" stop-color="#0072FF" />
      <stop offset="100%" stop-color="#0865D9" />
    </linearGradient>
    <path d="M0 0L28 0L28 28L0 28L0 0Z" id="path_1" />
    <clipPath id="mask_1">
      <use xlink:href="#path_1" />
    </clipPath>
  </defs>
  <g id="场馆预约">
    <path d="M0 0L28 0L28 28L0 28L0 0Z" id="背景" fill="#FFFFFF" fill-opacity="0" fill-rule="evenodd" stroke="none" />
    <g clip-path="url(#mask_1)">
      <g id="服务大厅与图标" transform="translate(3.5500002 3.5)">
        <g id="定制化图标">
          <g id="场馆预约">
            <path d="M19.2852 1.68854L15.9242 1.68854L15.9242 0.844272C15.9242 0.377994 15.5282 0 15.0397 0C14.5512 0 14.1552 0.377994 14.1552 0.844272L14.1552 1.68854L7.07944 1.68854L7.07944 0.844272C7.07944 0.377994 6.68344 0 6.19496 0C5.70648 0 5.31049 0.377994 5.31049 0.844272L5.31049 1.68854L1.77258 1.68854C0.795618 1.68854 0.00363123 2.44453 0.00363123 3.37709L0.00363123 19.308C-0.0280011 19.7644 0.148187 20.2117 0.487031 20.5351C0.825876 20.8585 1.29443 21.0267 1.77258 20.9965L19.3206 20.9965C20.2714 20.9389 21.0291 20.2156 21.0895 19.308L21.0895 3.37709C21.231 2.36396 20.3466 1.68854 19.2852 1.68854L19.2852 1.68854ZM5.31049 15.1969C4.33352 15.1969 3.54153 14.4409 3.54153 13.5084C3.54153 12.5758 4.33352 11.8198 5.31049 11.8198C6.28745 11.8198 7.07944 12.5758 7.07944 13.5084C7.07944 14.4409 6.28745 15.1969 5.31049 15.1969L5.31049 15.1969ZM10.6173 15.1969C9.64038 15.1969 8.84839 14.4409 8.84839 13.5084C8.84839 12.5758 9.64038 11.8198 10.6173 11.8198C11.5943 11.8198 12.3863 12.5758 12.3863 13.5084C12.3863 14.4409 11.5943 15.1969 10.6173 15.1969L10.6173 15.1969ZM15.9242 15.1969C14.9472 15.1969 14.1552 14.4409 14.1552 13.5084C14.1552 12.5758 14.9472 11.8198 15.9242 11.8198C16.9012 11.8198 17.6931 12.5758 17.6931 13.5084C17.6931 14.4409 16.9012 15.1969 15.9242 15.1969L15.9242 15.1969ZM19.2852 6.75418L1.77258 6.75418L1.77258 3.37709L5.31049 3.37709L5.31049 4.22136C5.31049 4.68764 5.70648 5.06563 6.19496 5.06563C6.68344 5.06563 7.07944 4.68764 7.07944 4.22136L7.07944 3.37709L14.1552 3.37709L14.1552 4.22136C14.1552 4.68764 14.5512 5.06563 15.0397 5.06563C15.5282 5.06563 15.9242 4.68764 15.9242 4.22136L15.9242 3.37709L19.2852 3.37709L19.2852 6.75418L19.2852 6.75418Z" id="形状" fill="url(#gradient_1)" fill-rule="evenodd" stroke="none" />
          </g>
        </g>
      </g>
    </g>
  </g>
</svg>