<?xml version="1.0" encoding="utf-8"?>
<svg width="28px" height="28px" viewBox="0 0 28 28" version="1.1" xmlns:xlink="http://www.w3.org/1999/xlink" xmlns="http://www.w3.org/2000/svg">
  <defs>
    <linearGradient gradientUnits="userSpaceOnUse" x1="22" y1="20.067148" x2="0" y2="0.9328512" id="gradient_1">
      <stop offset="0%" stop-color="#0072FF" />
      <stop offset="100%" stop-color="#0865D9" />
    </linearGradient>
    <path d="M0 0L28 0L28 28L0 28L0 0Z" id="path_1" />
    <clipPath id="mask_1">
      <use xlink:href="#path_1" />
    </clipPath>
  </defs>
  <g id="教务">
    <path d="M0 0L28 0L28 28L0 28L0 0Z" id="背景" fill="#FFFFFF" fill-opacity="0" fill-rule="evenodd" stroke="none" />
    <g clip-path="url(#mask_1)">
      <g id="教务处" transform="translate(2 2)">
        <path d="M0 0L24 0L24 24L0 24L0 0Z" id="矩形" fill="#000000" fill-opacity="0" fill-rule="evenodd" stroke="none" />
        <path d="M8 7.66447L11 7.66447L11 9.59868L8 9.59868L8 7.66447L8 7.66447ZM8 11.5329L11 11.5329L11 13.4671L8 13.4671L8 11.5329L8 11.5329ZM8 15.4013L11 15.4013L11 17.3355L8 17.3355L8 15.4013L8 15.4013ZM13 7.66447L16 7.66447L16 9.59868L13 9.59868L13 7.66447L13 7.66447ZM13 11.5329L16 11.5329L16 13.4671L13 13.4671L13 11.5329L13 11.5329ZM13 15.4013L16 15.4013L16 17.3355L13 17.3355L13 15.4013L13 15.4013ZM21 21.0658L21 2.96711C21 2.38684 20.6 2 20 2L4 2C3.4 2 3 2.38684 3 2.96711L3 21.0658L1.96711 21.0658C1.43299 21.0658 1 21.4988 1 22.0329C1 22.567 1.43299 23 1.96711 23L12 23L22.0329 23C22.567 23 23 22.567 23 22.0329C23 21.4988 22.567 21.0658 22.0329 21.0658L21 21.0658L21 21.0658L21 21.0658Z" id="形状" fill="url(#gradient_1)" fill-rule="evenodd" stroke="none" />
      </g>
    </g>
  </g>
</svg>