<?xml version="1.0" encoding="utf-8"?>
<svg width="32px" height="32px" viewBox="0 0 32 32" version="1.1" xmlns:xlink="http://www.w3.org/1999/xlink" xmlns="http://www.w3.org/2000/svg">
  <defs>
    <linearGradient gradientUnits="userSpaceOnUse" x1="24" y1="20.812252" x2="0" y2="1.5077299" id="gradient_1">
      <stop offset="0%" stop-color="#0072FF" />
      <stop offset="100%" stop-color="#0865D9" />
    </linearGradient>
    <path d="M0 0L32 0L32 32L0 32L0 0Z" id="path_1" />
    <clipPath id="mask_1">
      <use xlink:href="#path_1" />
    </clipPath>
  </defs>
  <g id="教学楼">
    <path d="M0 0L32 0L32 32L0 32L0 0Z" id="背景" fill="#FFFFFF" fill-opacity="0" fill-rule="evenodd" stroke="none" />
    <g clip-path="url(#mask_1)">
      <g id="服务大厅与图标" transform="translate(4 4)">
        <g id="定制化图标（第一批）">
          <g id="教室管理">
            <path d="M0 0L24 0L24 24L0 24L0 0Z" id="矩形" fill="#000000" fill-opacity="0" fill-rule="evenodd" stroke="none" />
            <path d="M23.196 21.4C23.64 21.4 24 21.76 24 22.204L24 22.516C24 22.96 23.64 23.32 23.196 23.32L8.70001 23.32C9.084 22.756 9.336 22.108 9.43199 21.4L23.196 21.4ZM13.98 7.336C14.184 7.336 14.388 7.39599 14.568 7.516L14.772 7.672C15.228 8.032 15.312 8.70399 14.94 9.148C13.86 10.624 11.832 13.408 11.784 13.456L11.784 13.468C11.748 13.708 11.412 14.2 11.04 14.296L7.55999 15.124L7.55999 20.704C7.55999 22.144 6.384 23.32 4.94401 23.32L2.736 23.32C1.296 23.32 0.120009 22.144 0.120009 20.704L0.120009 15.1C0.120009 13.66 1.296 12.484 2.736 12.484L4.05602 12.484C7.90801 12.436 9.96001 12.22 10.152 11.848L13.08 7.816C13.284 7.516 13.62 7.336 13.98 7.336L13.98 7.336ZM22.56 1C23.352 1 24 1.648 24 2.44L24 18.04C24 18.832 23.352 19.48 22.56 19.48L21.36 19.48C21.756 19.48 22.08 19.156 22.08 18.76L22.08 18.28C22.08 17.884 21.756 17.56 21.36 17.56L17.28 17.56C16.884 17.56 16.56 17.884 16.56 18.28L16.56 18.76C16.56 19.156 16.884 19.48 17.28 19.48L9.48 19.48L9.48 16.672L11.484 16.192L11.52 16.18C12.432 15.94 13.164 15.172 13.5 14.404C13.7905 14.0059 14.4379 13.1352 15.935 11.0828L16.488 10.324C16.956 9.71199 17.172 8.94398 17.076 8.16399C16.992 7.35999 16.584 6.652 15.96 6.16001L15.696 5.94401L15.636 5.90801C15.144 5.58401 14.58 5.41599 13.992 5.41599C12.996 5.41599 12.084 5.896 11.52 6.71199L8.904 10.3C8.63999 10.348 8.17199 10.408 7.37999 10.456C7.88399 9.66398 8.17199 8.72798 8.17199 7.73199C8.17199 4.96 5.89201 2.70401 3.10801 2.70401C2.78401 2.70401 2.47202 2.74001 2.16 2.8L2.16 2.44C2.16 1.648 2.808 1 3.6 1L22.56 1ZM3.10801 4.636C4.83601 4.636 6.25201 6.02799 6.25201 7.744C6.25201 9.45999 4.86 10.864 3.14401 10.864C1.42802 10.864 0.0240187 9.45999 0 7.744C0 6.02799 1.39202 4.636 3.10801 4.636L3.10801 4.636Z" id="形状结合" fill="url(#gradient_1)" fill-rule="evenodd" stroke="none" />
          </g>
        </g>
      </g>
    </g>
  </g>
</svg>