<?xml version="1.0" encoding="utf-8"?>
<svg width="32px" height="32px" viewBox="0 0 32 32" version="1.1" xmlns:xlink="http://www.w3.org/1999/xlink" xmlns="http://www.w3.org/2000/svg">
  <defs>
    <path d="M0 0L32 0L32 32L0 32L0 0Z" id="path_1" />
    <clipPath id="mask_1">
      <use xlink:href="#path_1" />
    </clipPath>
  </defs>
  <g id="日程">
    <path d="M0 0L32 0L32 32L0 32L0 0Z" id="背景" fill="#FFFFFF" fill-opacity="0" fill-rule="evenodd" stroke="none" />
    <g clip-path="url(#mask_1)">
      <g id="日程" transform="translate(2.999994 3)">
        <path d="M4.33332 0L6.49999 0L6.49999 4.33333L4.33332 4.33333L4.33332 0L4.33332 0ZM5.33332 1L5.33332 3.33333L5.49999 3.33333L5.49999 1L5.33332 1L5.33332 1Z" id="矢量图" fill="#F46F43" fill-rule="evenodd" stroke="none" />
        <path d="M20.5833 0L22.75 0L22.75 4.33333L20.5833 4.33333L20.5833 0L20.5833 0ZM21.5833 1L21.5833 3.33333L21.75 3.33333L21.75 1L21.5833 1L21.5833 1Z" id="矢量图" fill="#F46F43" fill-rule="evenodd" stroke="none" />
        <path d="M2.38419e-08 22.85L2.38419e-08 6.4C-9.53674e-08 5.53015 0.307538 4.78769 0.922613 4.17261C1.53769 3.55754 2.28015 3.25 3.15 3.25L22.85 3.25C23.7198 3.25 24.4623 3.55754 25.0774 4.17261C25.6925 4.78769 26 5.53015 26 6.4L26 22.85C26 23.7198 25.6925 24.4623 25.0774 25.0774C24.4623 25.6925 23.7198 26 22.85 26L3.15 26C2.28015 26 1.53769 25.6925 0.922612 25.0774C0.307537 24.4623 -9.53674e-08 23.7198 2.38419e-08 22.85L2.38419e-08 22.85ZM2.3 6.4L2.3 22.85C2.3 23.0847 2.38299 23.2851 2.54896 23.451C2.71493 23.617 2.91528 23.7 3.15 23.7L22.85 23.7C23.0847 23.7 23.2851 23.617 23.451 23.451C23.617 23.2851 23.7 23.0847 23.7 22.85L23.7 6.4C23.7 6.16528 23.617 5.96493 23.451 5.79896C23.2851 5.63299 23.0847 5.55 22.85 5.55L3.15 5.55C2.91528 5.55 2.71493 5.63299 2.54896 5.79896C2.38299 5.96493 2.3 6.16528 2.3 6.4L2.3 6.4Z" id="矢量图" fill="#F46F43" fill-rule="evenodd" stroke="none" />
        <path d="M12.0903 19.3449C11.8906 19.5517 11.5655 19.5517 11.3658 19.3449L10.2725 18.2131L6.64978 14.4624C6.45008 14.2556 6.45008 13.919 6.64978 13.7122L7.743 12.5804C7.9427 12.3736 8.26786 12.3736 8.46756 12.5804L11.7268 15.9521L18.6139 8.82173C18.8136 8.61498 19.1387 8.61498 19.341 8.82173L20.4316 9.95622C20.6339 10.163 20.6339 10.4996 20.4316 10.7064L12.0903 19.3449L12.0903 19.3449Z" id="路径" fill="#F46F43" stroke="none" />
      </g>
    </g>
  </g>
</svg>