<?xml version="1.0" encoding="utf-8"?>
<svg width="24.099976px" height="24.09999px" viewBox="0 0 24.099976 24.09999" version="1.1" xmlns:xlink="http://www.w3.org/1999/xlink" xmlns="http://www.w3.org/2000/svg">
  <defs>
    <linearGradient gradientUnits="userSpaceOnUse" x1="24" y1="24" x2="0" y2="0" id="gradient_1">
      <stop offset="0%" stop-color="#0072FF" />
      <stop offset="100%" stop-color="#0865D9" />
    </linearGradient>
  </defs>
  <g id="校园管理" transform="translate(0.049987793 0.05000305)">
    <path d="M5.64686 0C8.76553 0 11.2937 2.52818 11.2937 5.64686L11.2937 9.57943C11.2937 10.5262 10.5262 11.2937 9.57943 11.2937L5.64686 11.2937C2.52818 11.2937 0 8.76553 0 5.64686C0 2.52818 2.52818 0 5.64686 0L5.64686 0L5.64686 0ZM5.64686 1.71427C3.52356 1.70898 1.77946 3.39015 1.70677 5.51221C1.63407 7.63427 3.25903 9.43084 5.37771 9.57086L5.64686 9.57943L9.57943 9.57943L9.57943 5.64686C9.57943 4.60387 9.1651 3.60361 8.4276 2.86611C7.6901 2.12861 6.68984 1.71427 5.64686 1.71427L5.64686 1.71427L5.64686 1.71427ZM9.57943 12.7063C10.5262 12.7063 11.2937 13.4738 11.2937 14.4206L11.2937 18.3531C11.2937 21.4718 8.76553 24 5.64686 24C2.52818 24 0 21.4718 0 18.3531C0 15.2345 2.52818 12.7063 5.64686 12.7063L9.57943 12.7063L9.57943 12.7063L9.57943 12.7063ZM9.57943 14.4206L5.64686 14.4206C3.51002 14.4209 1.7645 16.1275 1.71595 18.2638C1.6674 20.4001 3.3336 22.1842 5.46822 22.2816C7.60283 22.379 9.42461 20.7541 9.57086 18.6223L9.57943 18.3531L9.57943 14.4206L9.57943 14.4206ZM18.3531 12.7063C21.4718 12.7063 24 15.2345 24 18.3531C24 21.4718 21.4718 24 18.3531 24C15.2345 24 12.7063 21.4718 12.7063 18.3531L12.7063 14.4206C12.7063 13.4738 13.4738 12.7063 14.4206 12.7063L18.3531 12.7063L18.3531 12.7063L18.3531 12.7063ZM18.3531 14.4206L14.4206 14.4206L14.4206 18.3531C14.4206 20.525 16.1812 22.2857 18.3531 22.2857C20.525 22.2857 22.2857 20.525 22.2857 18.3531C22.2857 16.1812 20.525 14.4206 18.3531 14.4206L18.3531 14.4206ZM18.3531 0C21.4718 0 24 2.52818 24 5.64686C24 8.76553 21.4718 11.2937 18.3531 11.2937L14.4206 11.2937C13.4738 11.2937 12.7063 10.5262 12.7063 9.57943L12.7063 5.64686C12.7063 2.52818 15.2345 0 18.3531 0L18.3531 0L18.3531 0ZM18.3531 1.71429C16.2855 1.71394 14.5707 3.31487 14.4291 5.37771L14.4206 5.64686L14.4206 9.57943L18.3531 9.57943C20.525 9.57943 22.2857 7.81876 22.2857 5.64686C22.2857 3.47496 20.525 1.71429 18.3531 1.71429L18.3531 1.71429Z" id="形状" fill="url(#gradient_1)" fill-rule="evenodd" stroke="url(#gradient_1)" stroke-width="0.1" />
  </g>
</svg>