<?xml version="1.0" encoding="utf-8"?>
<svg width="30px" height="30px" viewBox="0 0 30 30" version="1.1" xmlns:xlink="http://www.w3.org/1999/xlink" xmlns="http://www.w3.org/2000/svg">
  <defs>
    <linearGradient gradientUnits="userSpaceOnUse" x1="24" y1="24" x2="0" y2="0" id="gradient_1">
      <stop offset="0%" stop-color="#0072FF" />
      <stop offset="100%" stop-color="#0865D9" />
    </linearGradient>
  </defs>
  <g id="校园管理">
    <path d="M0 0L30 0L30 30L0 30L0 0Z" id="矩形" fill="none" fill-rule="evenodd" stroke="none" />
    <path d="M8.64686 3C11.7655 3 14.2937 5.52818 14.2937 8.64686L14.2937 12.5794C14.2937 13.5262 13.5262 14.2937 12.5794 14.2937L8.64686 14.2937C5.52818 14.2937 3 11.7655 3 8.64686C3 5.52818 5.52818 3 8.64686 3L8.64686 3L8.64686 3ZM8.64686 4.71427C6.52356 4.70898 4.77946 6.39015 4.70677 8.51221C4.63407 10.6343 6.25903 12.4308 8.37771 12.5709L8.64686 12.5794L12.5794 12.5794L12.5794 8.64686C12.5794 7.60387 12.1651 6.60361 11.4276 5.86611C10.6901 5.12861 9.68984 4.71427 8.64686 4.71427L8.64686 4.71427L8.64686 4.71427ZM12.5794 15.7063C13.5262 15.7063 14.2937 16.4738 14.2937 17.4206L14.2937 21.3531C14.2937 24.4718 11.7655 27 8.64686 27C5.52818 27 3 24.4718 3 21.3531C3 18.2345 5.52818 15.7063 8.64686 15.7063L12.5794 15.7063L12.5794 15.7063L12.5794 15.7063ZM12.5794 17.4206L8.64686 17.4206C6.51002 17.4209 4.7645 19.1275 4.71595 21.2638C4.6674 23.4001 6.3336 25.1842 8.46822 25.2816C10.6028 25.379 12.4246 23.7541 12.5709 21.6223L12.5794 21.3531L12.5794 17.4206L12.5794 17.4206ZM21.3531 15.7063C24.4718 15.7063 27 18.2345 27 21.3531C27 24.4718 24.4718 27 21.3531 27C18.2345 27 15.7063 24.4718 15.7063 21.3531L15.7063 17.4206C15.7063 16.4738 16.4738 15.7063 17.4206 15.7063L21.3531 15.7063L21.3531 15.7063L21.3531 15.7063ZM21.3531 17.4206L17.4206 17.4206L17.4206 21.3531C17.4206 23.525 19.1812 25.2857 21.3531 25.2857C23.525 25.2857 25.2857 23.525 25.2857 21.3531C25.2857 19.1812 23.525 17.4206 21.3531 17.4206L21.3531 17.4206ZM21.3531 3C24.4718 3 27 5.52818 27 8.64686C27 11.7655 24.4718 14.2937 21.3531 14.2937L17.4206 14.2937C16.4738 14.2937 15.7063 13.5262 15.7063 12.5794L15.7063 8.64686C15.7063 5.52818 18.2345 3 21.3531 3L21.3531 3L21.3531 3ZM21.3531 4.71429C19.2855 4.71394 17.5707 6.31487 17.4291 8.37771L17.4206 8.64686L17.4206 12.5794L21.3531 12.5794C23.525 12.5794 25.2857 10.8188 25.2857 8.64686C25.2857 6.47496 23.525 4.71429 21.3531 4.71429L21.3531 4.71429Z" id="形状" fill="url(#gradient_1)" fill-rule="evenodd" stroke="url(#gradient_1)" stroke-width="0.1" />
  </g>
</svg>