<?xml version="1.0" encoding="utf-8"?>
<svg width="22px" height="22px" viewBox="0 0 22 22" version="1.1" xmlns:xlink="http://www.w3.org/1999/xlink" xmlns="http://www.w3.org/2000/svg">
  <defs>
    <linearGradient gradientUnits="userSpaceOnUse" x1="22" y1="22" x2="0" y2="0" id="gradient_1">
      <stop offset="0%" stop-color="#FA9354" />
      <stop offset="100%" stop-color="#F66224" />
    </linearGradient>
  </defs>
  <g id="交大生活">
    <path d="M11 0C4.92488 0 0 4.92488 0 11C0 17.0751 4.92488 22 11 22C17.0751 22 22 17.0751 22 11C22 4.92488 17.0751 0 11 0L11 0ZM10.1099 16.1018C10.1099 16.3426 10.0254 16.5454 9.8562 16.7112C9.68482 16.8781 9.4798 16.9604 9.23949 16.9604L5.89387 16.9604C5.65303 16.9604 5.45138 16.877 5.28557 16.7112C5.11975 16.5454 5.03631 16.3421 5.03631 16.1018L5.03631 12.7349C5.03631 12.494 5.11975 12.2924 5.28557 12.126C5.45138 11.9591 5.65303 11.8756 5.89387 11.8756L9.23949 11.8756C9.4798 11.8756 9.68482 11.9602 9.8562 12.1255C10.0259 12.2924 10.1099 12.494 10.1099 12.7349L10.1099 16.1018L10.1099 16.1018ZM10.1099 9.94264C10.1099 10.1829 10.0254 10.389 9.8562 10.5593C9.68482 10.7307 9.4798 10.8153 9.23949 10.8153L5.89387 10.8153C5.65303 10.8153 5.45138 10.7307 5.28557 10.5593C5.11975 10.3902 5.03631 10.1829 5.03631 9.94264L5.03631 6.58973C5.03631 6.34889 5.11975 6.14552 5.28557 5.97971C5.45138 5.81396 5.65303 5.72994 5.89387 5.72994L9.23949 5.72994C9.4798 5.72994 9.68482 5.81396 9.8562 5.9792C10.0259 6.1461 10.1099 6.34832 10.1099 6.58973L10.1099 9.94264L10.1099 9.94264L10.1099 9.94264ZM16.2405 16.1023C16.2405 16.3432 16.1576 16.5459 15.993 16.7118C15.8272 16.8787 15.6238 16.961 15.3846 16.961L12.0384 16.961C11.7981 16.961 11.5943 16.8776 11.4228 16.7118C11.2526 16.5459 11.1663 16.3426 11.1663 16.1023L11.1663 12.7354C11.1663 12.4946 11.2526 12.2929 11.4228 12.126C11.5931 11.9591 11.7993 11.8756 12.0384 11.8756L15.3846 11.8756C15.6238 11.8756 15.8277 11.9602 15.993 12.126C16.1587 12.2918 16.2405 12.4946 16.2405 12.7354L16.2405 16.1023L16.2405 16.1023L16.2405 16.1023ZM16.716 8.87449L14.3456 11.2449C14.1759 11.4147 13.9709 11.5009 13.7306 11.5015C13.488 11.5015 13.283 11.4163 13.1133 11.2466L10.7479 8.8812C10.5776 8.7109 10.4947 8.50817 10.4987 8.27006C10.5015 8.03317 10.5888 7.82758 10.7586 7.65789L13.129 5.28739C13.2992 5.11658 13.502 5.03199 13.7367 5.03199C13.9714 5.03199 14.1737 5.11487 14.3439 5.28574L16.7094 7.65112C16.8791 7.82087 16.9648 8.02529 16.9682 8.26333C16.9704 8.50089 16.8869 8.70362 16.716 8.87449L16.716 8.87449L16.716 8.87449Z" id="形状" fill="url(#gradient_1)" fill-rule="evenodd" stroke="none" />
  </g>
</svg>