<?xml version="1.0" encoding="utf-8"?>
<svg width="28.00003px" height="28px" viewBox="0 0 28.00003 28" version="1.1" xmlns:xlink="http://www.w3.org/1999/xlink" xmlns="http://www.w3.org/2000/svg">
  <defs>
    <linearGradient gradientUnits="userSpaceOnUse" x1="22" y1="22" x2="0" y2="0" id="gradient_1">
      <stop offset="0%" stop-color="#FA9354" />
      <stop offset="100%" stop-color="#F66224" />
    </linearGradient>
    <path d="M0 0L28 0L28 28L0 28L0 0Z" id="path_1" />
    <clipPath id="mask_1">
      <use xlink:href="#path_1" />
    </clipPath>
  </defs>
  <g id="财务">
    <path d="M0 0L28 0L28 28L0 28L0 0Z" id="背景" fill="#FFFFFF" fill-opacity="0" fill-rule="evenodd" stroke="none" />
    <g id="服务大厅与图标" transform="translate(2 2)">
      <g id="服务分类首页推荐">
        <g id="财务">
          <path d="M0 0L24 0L24 24L0 24L0 0Z" id="矩形" fill="#000000" fill-opacity="0" fill-rule="evenodd" stroke="none" />
          <path d="M12 1C18.0751 1 23 5.92486 23 12C23 18.0751 18.0751 23 12 23C5.92486 23 1 18.0751 1 12C1 5.92486 5.92486 1 12 1L12 1Z" id="路径" fill="url(#gradient_1)" stroke="none" />
          <path d="M15.7262 7.23354C16.037 7.54434 16.037 8.04816 15.7262 8.35896L13.9147 10.1699L15.6939 10.1699C16.1335 10.1699 16.4898 10.5263 16.4898 10.9659C16.4898 11.4054 16.1335 11.7618 15.6939 11.7618L13.0058 11.7618L13.0058 13.3536L15.6939 13.3536C16.1335 13.3536 16.4898 13.71 16.4898 14.1495C16.4898 14.5891 16.1335 14.9455 15.6939 14.9455L13.0058 14.9455L13.0058 17.8776C13.0058 18.3172 12.6495 18.6735 12.2099 18.6735C11.7703 18.6735 11.414 18.3172 11.414 17.8776L11.414 14.9455L8.79592 14.9455C8.35635 14.9455 8 14.5891 8 14.1495C8 13.71 8.35635 13.3536 8.79592 13.3536L11.414 13.3536L11.414 11.7618L8.79592 11.7618C8.35635 11.7618 8 11.4054 8 10.9659C8 10.5263 8.35635 10.1699 8.79592 10.1699L10.5915 10.1699L8.78053 8.35896C8.46961 8.04819 8.46949 7.5442 8.78027 7.23327C9.09104 6.92235 9.59503 6.92223 9.90596 7.23301L12.2529 9.58043L14.6008 7.23354C14.9116 6.92282 15.4154 6.92282 15.7262 7.23354L15.7262 7.23354Z" id="形状" fill="#FFFFFF" stroke="none" />
        </g>
      </g>
    </g>
  </g>
</svg>